<svg width="43" height="43" viewBox="0 0 43 43" fill="none" xmlns="http://www.w3.org/2000/svg">
<g filter="url(#filter0_bd_1_388)">
<path fill-rule="evenodd" clip-rule="evenodd" d="M12.8338 8.4575C13.7183 8.38688 14.558 8.03898 15.2332 7.46336C15.9959 6.81378 16.965 6.45703 17.9668 6.45703C18.9686 6.45703 19.9377 6.81378 20.7003 7.46336C21.3756 8.03898 22.2153 8.38688 23.0998 8.4575C24.0986 8.53733 25.0364 8.97033 25.7449 9.67888C26.4535 10.3874 26.8865 11.3252 26.9663 12.3241C27.0365 13.2082 27.3843 14.0483 27.9605 14.7235C28.61 15.4862 28.9668 16.4552 28.9668 17.457C28.9668 18.4588 28.61 19.4279 27.9605 20.1906C27.3848 20.8658 27.037 21.7055 26.9663 22.59C26.8865 23.5889 26.4535 24.5266 25.7449 25.2352C25.0364 25.9437 24.0986 26.3767 23.0998 26.4566C22.2153 26.5272 21.3756 26.8751 20.7003 27.4507C19.9377 28.1003 18.9686 28.457 17.9668 28.457C16.965 28.457 15.9959 28.1003 15.2332 27.4507C14.558 26.8751 13.7183 26.5272 12.8338 26.4566C11.835 26.3767 10.8972 25.9437 10.1887 25.2352C9.4801 24.5266 9.04709 23.5889 8.96726 22.59C8.89664 21.7055 8.54875 20.8658 7.97312 20.1906C7.32355 19.4279 6.9668 18.4588 6.9668 17.457C6.9668 16.4552 7.32355 15.4862 7.97312 14.7235C8.54875 14.0482 8.89664 13.2086 8.96726 12.3241C9.04709 11.3252 9.4801 10.3874 10.1887 9.67888C10.8972 8.97033 11.835 8.53733 12.8338 8.4575ZM23.064 15.6791C23.3145 15.4198 23.4531 15.0725 23.4499 14.7119C23.4468 14.3514 23.3022 14.0065 23.0473 13.7516C22.7923 13.4967 22.4474 13.352 22.0869 13.3489C21.7264 13.3458 21.3791 13.4844 21.1197 13.7348L16.5918 18.2628L14.8139 16.4849C14.5545 16.2344 14.2072 16.0958 13.8467 16.099C13.4861 16.1021 13.1413 16.2467 12.8863 16.5016C12.6314 16.7566 12.4868 17.1015 12.4836 17.462C12.4805 17.8225 12.6191 18.1698 12.8696 18.4292L15.6196 21.1792C15.8775 21.437 16.2272 21.5818 16.5918 21.5818C16.9564 21.5818 17.3061 21.437 17.5639 21.1792L23.064 15.6791Z" fill="url(#paint0_linear_1_388)"/>
</g>
<defs>
<filter id="filter0_bd_1_388" x="0.966797" y="0.457031" width="42" height="42" filterUnits="userSpaceOnUse" color-interpolation-filters="sRGB">
<feFlood flood-opacity="0" result="BackgroundImageFix"/>
<feGaussianBlur in="BackgroundImageFix" stdDeviation="2.5"/>
<feComposite in2="SourceAlpha" operator="in" result="effect1_backgroundBlur_1_388"/>
<feColorMatrix in="SourceAlpha" type="matrix" values="0 0 0 0 0 0 0 0 0 0 0 0 0 0 0 0 0 0 127 0" result="hardAlpha"/>
<feOffset dx="4" dy="4"/>
<feGaussianBlur stdDeviation="5"/>
<feColorMatrix type="matrix" values="0 0 0 0 0.25098 0 0 0 0 0.788235 0 0 0 0 0.4 0 0 0 0.25 0"/>
<feBlend mode="normal" in2="effect1_backgroundBlur_1_388" result="effect2_dropShadow_1_388"/>
<feBlend mode="normal" in="SourceGraphic" in2="effect2_dropShadow_1_388" result="shape"/>
</filter>
<linearGradient id="paint0_linear_1_388" x1="26.9668" y1="6.45703" x2="15.5052" y2="29.1504" gradientUnits="userSpaceOnUse">
<stop stop-color="#71F79F"/>
<stop offset="0.0001" stop-color="#40C966"/>
<stop offset="1" stop-color="#40C966" stop-opacity="0.5"/>
</linearGradient>
</defs>
</svg>
