<svg width="73" height="51" viewBox="0 0 73 51" fill="none" xmlns="http://www.w3.org/2000/svg">
<ellipse cx="25.7614" cy="25.1826" rx="25.1286" ry="25" fill="#ABE1ED"/>
<path d="M25.5964 37.7736C24.0764 37.7736 22.7464 37.4736 21.6064 36.8736C20.4864 36.2736 19.4664 35.3936 18.5464 34.2336L20.8564 31.9236C21.4364 32.7636 22.1164 33.4436 22.8964 33.9636C23.6764 34.4836 24.6164 34.7436 25.7164 34.7436C26.8764 34.7436 27.7964 34.4936 28.4764 33.9936C29.1764 33.4936 29.5264 32.7836 29.5264 31.8636C29.5264 31.1636 29.3464 30.5936 28.9864 30.1536C28.6264 29.7136 28.1464 29.3536 27.5464 29.0736C26.9664 28.7736 26.3164 28.5136 25.5964 28.2936C24.8964 28.0536 24.1864 27.7936 23.4664 27.5136C22.7664 27.2136 22.1164 26.8436 21.5164 26.4036C20.9364 25.9636 20.4664 25.3936 20.1064 24.6936C19.7464 23.9936 19.5664 23.1036 19.5664 22.0236C19.5664 20.7836 19.8664 19.7336 20.4664 18.8736C21.0864 17.9936 21.9164 17.3236 22.9564 16.8636C23.9964 16.4036 25.1564 16.1736 26.4364 16.1736C27.6764 16.1736 28.8264 16.4436 29.8864 16.9836C30.9464 17.5236 31.8164 18.2136 32.4964 19.0536L30.1864 21.3636C29.5864 20.6836 28.9664 20.1536 28.3264 19.7736C27.7064 19.3936 27.0464 19.2036 26.3464 19.2036C25.2264 19.2036 24.3664 19.4236 23.7664 19.8636C23.1664 20.2836 22.8664 20.9236 22.8664 21.7836C22.8664 22.4236 23.0464 22.9436 23.4064 23.3436C23.7864 23.7236 24.2764 24.0536 24.8764 24.3336C25.4764 24.5936 26.1264 24.8436 26.8264 25.0836C27.5464 25.3236 28.2664 25.5936 28.9864 25.8936C29.7064 26.1936 30.3664 26.5836 30.9664 27.0636C31.5664 27.5236 32.0464 28.1236 32.4064 28.8636C32.7864 29.6036 32.9764 30.5336 32.9764 31.6536C32.9764 33.5336 32.3064 35.0236 30.9664 36.1236C29.6464 37.2236 27.8564 37.7736 25.5964 37.7736ZM25.1164 40.4736V13.4736H27.5164V40.4736H25.1164Z" fill="white"/>
<g filter="url(#filter0_bd_1_409)">
<path fill-rule="evenodd" clip-rule="evenodd" d="M41.907 16.1831C42.7924 16.1125 43.633 15.7646 44.309 15.1889C45.0724 14.5394 46.0425 14.1826 47.0454 14.1826C48.0483 14.1826 49.0184 14.5394 49.7819 15.1889C50.4578 15.7646 51.2984 16.1125 52.1838 16.1831C53.1838 16.2629 54.1225 16.6959 54.8318 17.4045C55.5412 18.113 55.9746 19.0508 56.0545 20.0497C56.1247 20.9338 56.473 21.7739 57.0497 22.4491C57.7 23.2117 58.0571 24.1808 58.0571 25.1826C58.0571 26.1844 57.7 27.1535 57.0497 27.9162C56.4735 28.5914 56.1252 29.4311 56.0545 30.3156C55.9746 31.3144 55.5412 32.2522 54.8318 32.9608C54.1225 33.6693 53.1838 34.1023 52.1838 34.1822C51.2984 34.2528 50.4578 34.6007 49.7819 35.1763C49.0184 35.8259 48.0483 36.1826 47.0454 36.1826C46.0425 36.1826 45.0724 35.8259 44.309 35.1763C43.633 34.6007 42.7924 34.2528 41.907 34.1822C40.9071 34.1023 39.9683 33.6693 39.259 32.9608C38.5497 32.2522 38.1162 31.3144 38.0363 30.3156C37.9656 29.4311 37.6173 28.5914 37.0411 27.9162C36.3908 27.1535 36.0337 26.1844 36.0337 25.1826C36.0337 24.1808 36.3908 23.2117 37.0411 22.4491C37.6173 21.7738 37.9656 20.9341 38.0363 20.0497C38.1162 19.0508 38.5497 18.113 39.259 17.4045C39.9683 16.6959 40.9071 16.2629 41.907 16.1831ZM52.1481 23.4047C52.3988 23.1454 52.5375 22.798 52.5344 22.4375C52.5313 22.077 52.3865 21.7321 52.1313 21.4772C51.8761 21.2222 51.5308 21.0776 51.1699 21.0745C50.809 21.0714 50.4613 21.21 50.2017 21.4604L45.6689 25.9884L43.8891 24.2105C43.6295 23.96 43.2818 23.8214 42.9209 23.8245C42.56 23.8277 42.2147 23.9723 41.9595 24.2272C41.7043 24.4822 41.5596 24.827 41.5564 25.1876C41.5533 25.5481 41.692 25.8954 41.9428 26.1548L44.6957 28.9048C44.9539 29.1626 45.3039 29.3074 45.6689 29.3074C46.0339 29.3074 46.384 29.1626 46.6421 28.9048L52.1481 23.4047Z" fill="url(#paint0_linear_1_409)"/>
</g>
<defs>
<filter id="filter0_bd_1_409" x="30.0337" y="8.18262" width="42.0234" height="42" filterUnits="userSpaceOnUse" color-interpolation-filters="sRGB">
<feFlood flood-opacity="0" result="BackgroundImageFix"/>
<feGaussianBlur in="BackgroundImageFix" stdDeviation="2.5"/>
<feComposite in2="SourceAlpha" operator="in" result="effect1_backgroundBlur_1_409"/>
<feColorMatrix in="SourceAlpha" type="matrix" values="0 0 0 0 0 0 0 0 0 0 0 0 0 0 0 0 0 0 127 0" result="hardAlpha"/>
<feOffset dx="4" dy="4"/>
<feGaussianBlur stdDeviation="5"/>
<feColorMatrix type="matrix" values="0 0 0 0 0.968627 0 0 0 0 0.443137 0 0 0 0 0.490196 0 0 0 0.25 0"/>
<feBlend mode="normal" in2="effect1_backgroundBlur_1_409" result="effect2_dropShadow_1_409"/>
<feBlend mode="normal" in="SourceGraphic" in2="effect2_dropShadow_1_409" result="shape"/>
</filter>
<linearGradient id="paint0_linear_1_409" x1="50.9782" y1="19.0715" x2="43.3305" y2="36.0425" gradientUnits="userSpaceOnUse">
<stop stop-color="#F7717D"/>
<stop offset="1" stop-color="#F7717D" stop-opacity="0.5"/>
</linearGradient>
</defs>
</svg>
