<svg width="67" height="53" viewBox="0 0 67 53" fill="none" xmlns="http://www.w3.org/2000/svg">
<path d="M8.42113 16.8906H1.75441C0.834011 16.8906 0.0877075 17.6368 0.0877075 18.5573V45.2238C0.0877075 46.1442 0.8339 46.8905 1.75441 46.8905H8.42102C9.34142 46.8905 10.0877 46.1443 10.0877 45.2238V18.5572C10.0877 17.6368 9.34165 16.8906 8.42113 16.8906Z" fill="#ABE1ED"/>
<path d="M50.0543 21.3092C49.7603 18.7237 47.3452 16.8912 44.7431 16.8912H31.7494C32.8536 14.9139 33.4463 9.3213 33.4201 7.03671C33.3765 3.25507 30.2448 0.224609 26.463 0.224609H25.0877C24.1666 0.224609 23.421 0.970026 23.421 1.89132C23.421 5.74537 21.9203 12.7018 19.09 15.5323C17.185 17.4373 15.5565 18.1276 13.421 19.1948V44.2029C16.6904 45.2927 20.8416 46.8912 27.1687 46.8912H38.0712C41.6636 46.8912 44.4614 43.5641 43.0693 40.0488C45.1901 39.4711 46.7542 37.526 46.7542 35.2246C46.7542 34.5751 46.6289 33.9534 46.4026 33.3821C49.9766 32.4084 51.2921 27.9954 48.8115 25.2245C49.7229 24.2064 50.2254 22.8139 50.0543 21.3092Z" fill="#ABE1ED"/>
<g filter="url(#filter0_bd_1_422)">
<path fill-rule="evenodd" clip-rule="evenodd" d="M52.6522 28.2441C52.6522 34.0433 47.9513 38.7441 42.1522 38.7441C36.353 38.7441 31.6522 34.0433 31.6522 28.2441C31.6522 22.445 36.353 17.7441 42.1522 17.7441C47.9513 17.7441 52.6522 22.445 52.6522 28.2441ZM44.0691 26.1394L47.4916 26.6354C47.7275 26.6704 47.892 26.8882 47.8556 27.1235C47.8421 27.2176 47.7976 27.3036 47.7302 27.3695L45.254 29.7773L45.839 33.1772C45.8794 33.4111 45.7217 33.633 45.4872 33.6733C45.3941 33.6894 45.2971 33.6746 45.2135 33.6303L42.1522 32.0251L39.0909 33.6303C39.0197 33.6677 38.9394 33.6846 38.8591 33.6789C38.7789 33.6732 38.7018 33.6451 38.6367 33.598C38.5716 33.5508 38.521 33.4864 38.4907 33.412C38.4604 33.3376 38.4517 33.2563 38.4654 33.1772L39.0504 29.7773L36.5741 27.3695C36.4921 27.2898 36.4452 27.1808 36.4437 27.0666C36.4422 26.9525 36.4862 26.8423 36.566 26.7605C36.6321 26.6933 36.7184 26.6489 36.8127 26.6354L40.2353 26.1394L41.7653 23.0459C41.8718 22.8335 42.1306 22.7461 42.3436 22.851C42.4285 22.8927 42.4973 22.9612 42.5391 23.0459L44.0691 26.1394Z" fill="url(#paint0_linear_1_422)"/>
</g>
<defs>
<filter id="filter0_bd_1_422" x="25.6522" y="11.7441" width="41" height="41" filterUnits="userSpaceOnUse" color-interpolation-filters="sRGB">
<feFlood flood-opacity="0" result="BackgroundImageFix"/>
<feGaussianBlur in="BackgroundImageFix" stdDeviation="1.5"/>
<feComposite in2="SourceAlpha" operator="in" result="effect1_backgroundBlur_1_422"/>
<feColorMatrix in="SourceAlpha" type="matrix" values="0 0 0 0 0 0 0 0 0 0 0 0 0 0 0 0 0 0 127 0" result="hardAlpha"/>
<feOffset dx="4" dy="4"/>
<feGaussianBlur stdDeviation="5"/>
<feColorMatrix type="matrix" values="0 0 0 0 0.968627 0 0 0 0 0.443137 0 0 0 0 0.490196 0 0 0 0.25 0"/>
<feBlend mode="normal" in2="effect1_backgroundBlur_1_422" result="effect2_dropShadow_1_422"/>
<feBlend mode="normal" in="SourceGraphic" in2="effect2_dropShadow_1_422" result="shape"/>
</filter>
<linearGradient id="paint0_linear_1_422" x1="45.9022" y1="22.4108" x2="38.597" y2="38.6045" gradientUnits="userSpaceOnUse">
<stop stop-color="#F7717D"/>
<stop offset="1" stop-color="#F7717D" stop-opacity="0.5"/>
</linearGradient>
</defs>
</svg>
