<svg width="95" height="48" viewBox="0 0 95 48" fill="none" xmlns="http://www.w3.org/2000/svg">
<path fill-rule="evenodd" clip-rule="evenodd" d="M54.5661 0.839467C61.1588 2.36929 63.6807 6.22429 66.8424 11.5302H54.5661V0.839467ZM16.0381 11.9758C17.3289 11.9758 18.2659 12.5988 18.2659 14.055C18.2659 15.2831 17.2721 16.2792 16.0445 16.2827H2.58594C1.35547 16.2827 0.358215 17.2805 0.358215 18.5104C0.358215 19.7409 1.35547 20.7381 2.58594 20.7381H22.6354C23.8775 20.7381 24.8719 21.7348 24.8719 22.9659C24.8719 24.1963 23.8746 25.1936 22.6441 25.1936H2.58594C1.35547 25.1936 0.358215 26.1908 0.358215 27.4213C0.358215 28.6518 1.35547 29.649 2.58594 29.649H7.48693V36.3322C7.48693 37.5627 8.48418 38.5599 9.71465 38.5599H14.1927C14.991 42.4921 18.4654 45.3916 22.5612 45.3916C26.6569 45.3916 30.1314 42.4921 30.9296 38.5599H53.5492C54.3474 42.4921 57.8219 45.3916 61.9176 45.3916C66.0134 45.3916 69.4878 42.4921 70.2861 38.5599H74.1701C75.4006 38.5599 76.3978 37.5627 76.3978 36.3322V22.9659C76.3978 16.4295 69.5035 15.9955 69.4971 15.9857H52.3384C51.1079 15.9857 50.1107 14.9884 50.1107 13.7579V0.391602H9.71465C8.48418 0.391602 7.48693 1.38886 7.48693 2.61932V7.52031H4.81366C3.58319 7.52031 2.58594 8.51757 2.58594 9.74804C2.58594 10.9785 3.58319 11.9758 4.81366 11.9758H16.0381ZM64.8055 33.9641C66.4003 35.5589 66.4003 38.1457 64.8055 39.7405C62.2402 42.3059 57.8335 40.4808 57.8335 36.852C57.8335 33.2238 62.2402 31.3987 64.8055 33.9641ZM25.4491 33.9641C27.0439 35.5589 27.0439 38.1457 25.4491 39.7405C22.8837 42.3059 18.477 40.4808 18.477 36.852C18.477 33.2238 22.8837 31.3987 25.4491 33.9641Z" fill="#ABE1ED"/>
<g filter="url(#filter0_bd_1_416)">
<path fill-rule="evenodd" clip-rule="evenodd" d="M64.6798 13.8921C65.5643 13.8214 66.404 13.4736 67.0793 12.8979C67.8419 12.2484 68.811 11.8916 69.8128 11.8916C70.8146 11.8916 71.7837 12.2484 72.5464 12.8979C73.2216 13.4736 74.0613 13.8214 74.9458 13.8921C75.9446 13.9719 76.8824 14.4049 77.591 15.1135C78.2995 15.822 78.7325 16.7598 78.8123 17.7586C78.8825 18.6428 79.2303 19.4829 79.8065 20.1581C80.4561 20.9207 80.8128 21.8898 80.8128 22.8916C80.8128 23.8934 80.4561 24.8625 79.8065 25.6252C79.2309 26.3004 78.883 27.1401 78.8123 28.0246C78.7325 29.0234 78.2995 29.9612 77.591 30.6697C76.8824 31.3783 75.9446 31.8113 74.9458 31.8911C74.0613 31.9618 73.2216 32.3097 72.5464 32.8853C71.7837 33.5349 70.8146 33.8916 69.8128 33.8916C68.811 33.8916 67.8419 33.5349 67.0793 32.8853C66.404 32.3097 65.5643 31.9618 64.6798 31.8911C63.681 31.8113 62.7432 31.3783 62.0347 30.6697C61.3261 29.9612 60.8931 29.0234 60.8133 28.0246C60.7427 27.1401 60.3948 26.3004 59.8191 25.6252C59.1696 24.8625 58.8128 23.8934 58.8128 22.8916C58.8128 21.8898 59.1696 20.9207 59.8191 20.1581C60.3948 19.4828 60.7427 18.6431 60.8133 17.7586C60.8931 16.7598 61.3261 15.822 62.0347 15.1135C62.7432 14.4049 63.681 13.9719 64.6798 13.8921ZM74.91 21.1137C75.1605 20.8544 75.2991 20.507 75.296 20.1465C75.2928 19.786 75.1482 19.4411 74.8933 19.1862C74.6383 18.9312 74.2935 18.7866 73.9329 18.7835C73.5724 18.7803 73.2251 18.9189 72.9657 19.1694L68.4378 23.6974L66.6599 21.9195C66.4005 21.669 66.0532 21.5304 65.6927 21.5335C65.3322 21.5367 64.9873 21.6813 64.7323 21.9362C64.4774 22.1912 64.3328 22.536 64.3297 22.8966C64.3265 23.2571 64.4651 23.6044 64.7156 23.8637L67.4656 26.6138C67.7235 26.8716 68.0732 27.0164 68.4378 27.0164C68.8024 27.0164 69.1521 26.8716 69.4099 26.6138L74.91 21.1137Z" fill="url(#paint0_linear_1_416)"/>
</g>
<defs>
<filter id="filter0_bd_1_416" x="52.8128" y="5.8916" width="42" height="42" filterUnits="userSpaceOnUse" color-interpolation-filters="sRGB">
<feFlood flood-opacity="0" result="BackgroundImageFix"/>
<feGaussianBlur in="BackgroundImageFix" stdDeviation="2.5"/>
<feComposite in2="SourceAlpha" operator="in" result="effect1_backgroundBlur_1_416"/>
<feColorMatrix in="SourceAlpha" type="matrix" values="0 0 0 0 0 0 0 0 0 0 0 0 0 0 0 0 0 0 127 0" result="hardAlpha"/>
<feOffset dx="4" dy="4"/>
<feGaussianBlur stdDeviation="5"/>
<feColorMatrix type="matrix" values="0 0 0 0 0.968627 0 0 0 0 0.443137 0 0 0 0 0.490196 0 0 0 0.25 0"/>
<feBlend mode="normal" in2="effect1_backgroundBlur_1_416" result="effect2_dropShadow_1_416"/>
<feBlend mode="normal" in="SourceGraphic" in2="effect2_dropShadow_1_416" result="shape"/>
</filter>
<linearGradient id="paint0_linear_1_416" x1="73.7414" y1="16.7805" x2="66.0883" y2="33.7453" gradientUnits="userSpaceOnUse">
<stop stop-color="#F7717D"/>
<stop offset="1" stop-color="#F7717D" stop-opacity="0.5"/>
</linearGradient>
</defs>
</svg>
